<?xml version="1.0" encoding="UTF-8"?>
<svg width="27px" height="34px" viewBox="0 0 27 34" version="1.1" xmlns="http://www.w3.org/2000/svg" xmlns:xlink="http://www.w3.org/1999/xlink">
    <!-- Generator: Sketch 44.1 (41455) - http://www.bohemiancoding.com/sketch -->
    <title>Combined Shape Copy</title>
    <desc>Created with Sketch.</desc>
    <defs></defs>
    <g id="Page-1" stroke="none" stroke-width="1" fill="none" fill-rule="evenodd">
        <g id="woowoo" transform="translate(-189.000000, -14.000000)" fill="#3A3A3A">
            <path d="M213.524811,28.0545423 C213.507846,28.2452512 213.489711,28.4359601 213.465141,28.624914 C212.750275,34.1753613 208.038128,38.486201 202.313937,38.5622505 C202.263042,38.5628355 202.213317,38.5698555 202.162423,38.5698555 C196.369202,38.5698555 191.581005,34.225086 190.859704,28.624914 C190.835134,28.4359601 190.817584,28.2452512 190.800034,28.0545423 C190.77722,27.7591191 190.75499,27.4631108 190.75499,27.1624226 C190.75499,20.8725396 195.87254,15.7549897 202.162423,15.7549897 C208.452306,15.7549897 213.569855,20.8725396 213.569855,27.1624226 C213.569855,27.4631108 213.547626,27.7591191 213.524811,28.0545423 L213.524811,28.0545423 Z M196.100103,46.1701308 C198.562939,44.8895733 200.798211,42.9362698 202.783689,40.3084652 C207.323847,40.0966965 211.269064,37.5730213 213.468651,33.891638 C212.508087,44.7895389 204.814212,46.0923262 196.100103,46.1701308 L196.100103,46.1701308 Z M190.75499,46.0736063 L190.75499,33.716139 C192.783173,37.2319683 196.386752,39.7263937 200.596387,40.2283207 C197.776118,43.578011 194.477323,45.5424295 190.75499,46.0736063 L190.75499,46.0736063 Z M215.31724,26.8699243 L215.324845,26.8699243 L215.324845,31.4832072 C215.324845,47.9298004 202.690674,47.9298004 195.142464,47.9298004 L189.907915,47.9298004 L189,48 L189,47.9298004 L189,28.3645905 L189,26.8699243 L189.007605,26.8699243 C189.163799,19.7470062 195.003235,14 202.162423,14 C209.32161,14 215.161046,19.7470062 215.31724,26.8699243 Z M203.624972,27.1621886 C203.624972,27.7466001 203.741972,28.3035169 203.950231,28.8136339 L202.162481,30.6013833 L200.374732,28.8136339 C200.58299,28.3035169 200.69999,27.7466001 200.69999,27.1621886 C200.69999,24.7426428 198.732061,22.7747144 196.312515,22.7747144 C193.89297,22.7747144 191.925041,24.7426428 191.925041,27.1621886 C191.925041,29.5817343 193.89297,31.5496628 196.312515,31.5496628 C197.504153,31.5496628 198.585227,31.0711356 199.376142,30.2966001 L202.162481,33.0829387 L204.94882,30.2966001 C205.739735,31.0711356 206.820809,31.5496628 208.012447,31.5496628 C210.431992,31.5496628 212.399921,29.5817343 212.399921,27.1621886 C212.399921,24.7426428 210.431992,22.7747144 208.012447,22.7747144 C205.592901,22.7747144 203.624972,24.7426428 203.624972,27.1621886 Z M210.644931,27.1621886 C210.644931,28.613565 209.463823,29.7946731 208.012447,29.7946731 C206.56107,29.7946731 205.379962,28.613565 205.379962,27.1621886 C205.379962,25.7108121 206.56107,24.5297041 208.012447,24.5297041 C209.463823,24.5297041 210.644931,25.7108121 210.644931,27.1621886 Z M196.312515,29.7946731 C194.861139,29.7946731 193.680031,28.613565 193.680031,27.1621886 C193.680031,25.7108121 194.861139,24.5297041 196.312515,24.5297041 C197.763892,24.5297041 198.945,25.7108121 198.945,27.1621886 C198.945,28.613565 197.763892,29.7946731 196.312515,29.7946731 Z M194.557526,27.1621886 C194.557526,28.1315279 195.343176,28.9171783 196.312515,28.9171783 C197.281855,28.9171783 198.067505,28.1315279 198.067505,27.1621886 C198.067505,26.1928493 197.281855,25.4071989 196.312515,25.4071989 C195.343176,25.4071989 194.557526,26.1928493 194.557526,27.1621886 Z M207.471032,28.8313008 C208.392987,29.130819 209.382216,28.625967 209.681734,27.7040124 C209.981253,26.7814728 209.475816,25.7922436 208.553861,25.4927254 C207.631906,25.1937922 206.642677,25.6986442 206.343159,26.6205988 C206.043641,27.5425533 206.549078,28.5323675 207.471032,28.8313008 Z" id="Combined-Shape-Copy"></path>
        </g>
    </g>
</svg>